<svg width="56" height="28" viewBox="0 0 56 28" fill="none" xmlns="http://www.w3.org/2000/svg">
<g filter="url(#filter0_d_8_105)">
<path d="M4.32 19L10.32 3.56C10.6933 2.57333 11.24 1.81333 11.96 1.28C12.68 0.719999 13.84 0.439999 15.44 0.439999C16.7733 0.439999 17.8267 0.693333 18.6 1.2C19.3733 1.70667 19.9733 2.49333 20.4 3.56L26.48 19H20.68L18.96 14.56H10.04L8.44 19H4.32ZM10.92 12.44H17.96L15.64 5.96C15.56 5.69333 15.44 5.45333 15.28 5.24C15.1467 5 14.88 4.88 14.48 4.88C14.0267 4.88 13.72 5 13.56 5.24C13.4267 5.45333 13.3067 5.69333 13.2 5.96L10.92 12.44Z" fill="#785B80"/>
<path d="M51.0469 9.88C51.0469 11.9333 50.8202 13.5733 50.3669 14.8C49.9135 16.0267 49.2335 16.9467 48.3269 17.56C47.4202 18.1467 46.2735 18.5467 44.8869 18.76C43.5269 18.9467 41.9269 19.04 40.0869 19.04C39.0202 19.04 37.9802 19.04 36.9669 19.04C35.9802 19.04 35.0335 19.0267 34.1269 19C33.2202 19 32.3669 19 31.5669 19C30.7935 19 30.1135 19 29.5269 19V3.2C29.5269 2.29333 29.6869 1.64 30.0069 1.24C30.3269 0.839999 30.9802 0.626666 31.9669 0.6C32.5802 0.6 33.2735 0.6 34.0469 0.6C34.8202 0.573333 35.6069 0.559999 36.4069 0.559999C37.2335 0.559999 38.0469 0.559999 38.8469 0.559999C39.6735 0.559999 40.4069 0.559999 41.0469 0.559999C42.7802 0.586666 44.2735 0.719999 45.5269 0.959999C46.8069 1.2 47.8469 1.64 48.6469 2.28C49.4735 2.92 50.0735 3.85333 50.4469 5.08C50.8469 6.28 51.0469 7.88 51.0469 9.88ZM34.8469 16.24C35.0869 16.24 35.4069 16.24 35.8069 16.24C36.2335 16.24 36.6735 16.2533 37.1269 16.28C37.6069 16.28 38.0735 16.28 38.5269 16.28C38.9802 16.28 39.3535 16.28 39.6469 16.28C40.7402 16.28 41.6602 16.2 42.4069 16.04C43.1802 15.88 43.7935 15.5733 44.2469 15.12C44.7002 14.64 45.0335 13.9867 45.2469 13.16C45.4602 12.3067 45.5669 11.2267 45.5669 9.92C45.5669 8.08 45.3802 6.69333 45.0069 5.76C44.6335 4.8 44.0202 4.16 43.1669 3.84C42.3135 3.49333 41.1269 3.32 39.6069 3.32C39.2602 3.32 38.8069 3.32 38.2469 3.32C37.6869 3.32 37.1402 3.33333 36.6069 3.36C36.0735 3.36 35.6202 3.37333 35.2469 3.4C35.1402 3.53333 35.0469 3.69333 34.9669 3.88C34.8869 4.04 34.8469 4.32 34.8469 4.72V16.24Z" fill="#EDCB9D"/>
</g>
<defs>
<filter id="filter0_d_8_105" x="0.320007" y="0.440002" width="54.7269" height="26.6" filterUnits="userSpaceOnUse" color-interpolation-filters="sRGB">
<feFlood flood-opacity="0" result="BackgroundImageFix"/>
<feColorMatrix in="SourceAlpha" type="matrix" values="0 0 0 0 0 0 0 0 0 0 0 0 0 0 0 0 0 0 127 0" result="hardAlpha"/>
<feOffset dy="4"/>
<feGaussianBlur stdDeviation="2"/>
<feComposite in2="hardAlpha" operator="out"/>
<feColorMatrix type="matrix" values="0 0 0 0 0 0 0 0 0 0 0 0 0 0 0 0 0 0 0.25 0"/>
<feBlend mode="normal" in2="BackgroundImageFix" result="effect1_dropShadow_8_105"/>
<feBlend mode="normal" in="SourceGraphic" in2="effect1_dropShadow_8_105" result="shape"/>
</filter>
</defs>
</svg>
